<?xml version="1.0" encoding="UTF-8" standalone="no"?>
<svg
   xmlns:dc="http://purl.org/dc/elements/1.1/"
   xmlns:cc="http://creativecommons.org/ns#"
   xmlns:rdf="http://www.w3.org/1999/02/22-rdf-syntax-ns#"
   xmlns:svg="http://www.w3.org/2000/svg"
   xmlns="http://www.w3.org/2000/svg"
   viewBox="0 0 816 1056"
   height="1056"
   width="816"
   xml:space="preserve"
   id="svg2"
   version="1.1"><metadata
     id="metadata8"><rdf:RDF><cc:Work
         rdf:about=""><dc:format>image/svg+xml</dc:format><dc:type
           rdf:resource="http://purl.org/dc/dcmitype/StillImage" /></cc:Work></rdf:RDF></metadata><defs
     id="defs6" /><g
     transform="matrix(1.3333333,0,0,1.3333333,0,2.64e-5)"
     id="g10"><g
       transform="scale(0.75)"
       id="g12"><path
         id="path14"
         style="fill:#ffffff;fill-opacity:1;fill-rule:nonzero;stroke:none"
         d="M 0,0 H 816 V 1056 H 0 Z" /></g><g
       transform="matrix(0.75,0,0,0.75,72,72)"
       id="g16"><text
         id="text20"
         style="font-variant:normal;font-weight:normal;font-size:16px;font-family:Roboto;-inkscape-font-specification:Roboto-Regular;writing-mode:lr-tb;fill:#000000;fill-opacity:1;fill-rule:nonzero;stroke:none"
         transform="translate(0,15.203125)"><tspan
           id="tspan18"
           y="0"
           x="0">[</tspan></text>
</g><g
       transform="matrix(0.75,0,0,0.75,72,86.402344)"
       id="g22"><text
         id="text26"
         style="font-variant:normal;font-weight:normal;font-size:16px;font-family:Roboto;-inkscape-font-specification:Roboto-Regular;writing-mode:lr-tb;fill:#000000;fill-opacity:1;fill-rule:nonzero;stroke:none"
         transform="translate(7.921875,15.203125)"><tspan
           id="tspan24"
           y="0"
           x="0">{</tspan></text>
</g><g
       transform="matrix(0.75,0,0,0.75,72,100.80469)"
       id="g28"><text
         id="text32"
         style="font-variant:normal;font-weight:normal;font-size:16px;font-family:Roboto;-inkscape-font-specification:Roboto-Regular;writing-mode:lr-tb;fill:#000000;fill-opacity:1;fill-rule:nonzero;stroke:none"
         transform="translate(15.84375,15.203125)"><tspan
           id="tspan30"
           y="0"
           x="0 5.1171875 9 18.023438 23.140625">&quot;id&quot;:</tspan></text>
<text
         id="text36"
         style="font-variant:normal;font-weight:normal;font-size:16px;font-family:Roboto;-inkscape-font-specification:Roboto-Regular;writing-mode:lr-tb;fill:#000000;fill-opacity:1;fill-rule:nonzero;stroke:none"
         transform="translate(46.820313,15.203125)"><tspan
           id="tspan34"
           y="0"
           x="0 8.984375">1,</tspan></text>
</g><g
       transform="matrix(0.75,0,0,0.75,72,115.20703)"
       id="g38"><text
         id="text42"
         style="font-variant:normal;font-weight:normal;font-size:16px;font-family:Roboto;-inkscape-font-specification:Roboto-Regular;writing-mode:lr-tb;fill:#000000;fill-opacity:1;fill-rule:nonzero;stroke:none"
         transform="translate(15.84375,15.203125)"><tspan
           id="tspan40"
           y="0"
           x="0 5.1171875 13.9375 22.1875 30.664062 36.078125 40.429688 49.453125 54.570312">&quot;userId&quot;:</tspan></text>
<text
         id="text46"
         style="font-variant:normal;font-weight:normal;font-size:16px;font-family:Roboto;-inkscape-font-specification:Roboto-Regular;writing-mode:lr-tb;fill:#000000;fill-opacity:1;fill-rule:nonzero;stroke:none"
         transform="translate(78.25,15.203125)"><tspan
           id="tspan44"
           y="0"
           x="0 8.984375">1,</tspan></text>
</g><g
       transform="matrix(0.75,0,0,0.75,72,129.60937)"
       id="g48"><text
         id="text52"
         style="font-variant:normal;font-weight:normal;font-size:16px;font-family:Roboto;-inkscape-font-specification:Roboto-Regular;writing-mode:lr-tb;fill:#000000;fill-opacity:1;fill-rule:nonzero;stroke:none"
         transform="translate(15.84375,15.203125)"><tspan
           id="tspan50"
           y="0"
           x="0 5.1171875 14.09375 22.796875 28.210938 37.1875 45.664062 51.078125 55.429688 64.453125 69.570312">&quot;barberId&quot;:</tspan></text>
<text
         id="text56"
         style="font-variant:normal;font-weight:normal;font-size:16px;font-family:Roboto;-inkscape-font-specification:Roboto-Regular;writing-mode:lr-tb;fill:#000000;fill-opacity:1;fill-rule:nonzero;stroke:none"
         transform="translate(93.25,15.203125)"><tspan
           id="tspan54"
           y="0"
           x="0 8.984375">4,</tspan></text>
</g><g
       transform="matrix(0.75,0,0,0.75,72,144.01172)"
       id="g58"><text
         id="text62"
         style="font-variant:normal;font-weight:normal;font-size:16px;font-family:Roboto;-inkscape-font-specification:Roboto-Regular;writing-mode:lr-tb;fill:#000000;fill-opacity:1;fill-rule:nonzero;stroke:none"
         transform="translate(15.84375,15.203125)"><tspan
           id="tspan60"
           y="0"
           x="0 5.1171875 14.09375 22.796875 28.210938 37.1875 45.664062 51.078125 62.484375 71.1875 85.210938 93.578125 98.695312">&quot;barberName&quot;:</tspan></text>
<text
         id="text66"
         style="font-variant:normal;font-weight:normal;font-size:16px;font-family:Roboto;-inkscape-font-specification:Roboto-Regular;writing-mode:lr-tb;fill:#000000;fill-opacity:1;fill-rule:nonzero;stroke:none"
         transform="translate(122.375,15.203125)"><tspan
           id="tspan64"
           y="0"
           x="0 5.1171875 15.609375 24.195312 31.945312 35.828125">&quot;David</tspan></text>
<text
         id="text70"
         style="font-variant:normal;font-weight:normal;font-size:16px;font-family:Roboto;-inkscape-font-specification:Roboto-Regular;writing-mode:lr-tb;fill:#000000;fill-opacity:1;fill-rule:nonzero;stroke:none"
         transform="translate(171.1875,15.203125)"><tspan
           id="tspan68"
           y="0"
           x="0 8.828125 12.710938 26.734375 35.210938 44.039062 52.515625 60.445312 65.5625">Jimenez&quot;,</tspan></text>
</g><g
       transform="matrix(0.75,0,0,0.75,72,158.41406)"
       id="g72"><text
         id="text76"
         style="font-variant:normal;font-weight:normal;font-size:16px;font-family:Roboto;-inkscape-font-specification:Roboto-Regular;writing-mode:lr-tb;fill:#000000;fill-opacity:1;fill-rule:nonzero;stroke:none"
         transform="translate(15.84375,15.203125)"><tspan
           id="tspan74"
           y="0"
           x="0 5.1171875 14.09375 22.796875 28.210938 37.1875 45.664062 51.078125 60.570312 69.046875 74.601562 82.351562 86.234375 94.609375 102.97656 108.09375">&quot;barberService&quot;:</tspan></text>
<text
         id="text80"
         style="font-variant:normal;font-weight:normal;font-size:16px;font-family:Roboto;-inkscape-font-specification:Roboto-Regular;writing-mode:lr-tb;fill:#000000;fill-opacity:1;fill-rule:nonzero;stroke:none"
         transform="translate(131.77344,15.203125)"><tspan
           id="tspan78"
           y="0"
           x="0 5.1171875 16.523438 25.226562 29.109375 34.375 42.75 51.570312 56.796875 61.914062">&quot;Haircut&quot;,</tspan></text>
</g><g
       transform="matrix(0.75,0,0,0.75,72,172.81641)"
       id="g82"><text
         id="text86"
         style="font-variant:normal;font-weight:normal;font-size:16px;font-family:Roboto;-inkscape-font-specification:Roboto-Regular;writing-mode:lr-tb;fill:#000000;fill-opacity:1;fill-rule:nonzero;stroke:none"
         transform="translate(15.84375,15.203125)"><tspan
           id="tspan84"
           y="0"
           x="0 4.65625 13.679688 22.382812 27.609375 36.085938 45.632812 49.515625 63.539062 72.015625 80.679688 89.382812 97.335938 105.8125 113.82812 118.94531">&quot;dateTimeTaken&quot;:</tspan></text>
<text
         id="text90"
         style="font-variant:normal;font-weight:normal;font-size:16px;font-family:Roboto;-inkscape-font-specification:Roboto-Regular;writing-mode:lr-tb;fill:#000000;fill-opacity:1;fill-rule:nonzero;stroke:none"
         transform="translate(142.625,15.203125)"><tspan
           id="tspan88"
           y="0"
           x="0 5.1171875 14.101562 23.085938 32.070312 41.054688 45.46875 54.453125 63.4375 67.851562 76.835938">&quot;2023-12-05</tspan></text>
<text
         id="text94"
         style="font-variant:normal;font-weight:normal;font-size:16px;font-family:Roboto;-inkscape-font-specification:Roboto-Regular;writing-mode:lr-tb;fill:#000000;fill-opacity:1;fill-rule:nonzero;stroke:none"
         transform="translate(232.40625,15.203125)"><tspan
           id="tspan92"
           y="0"
           x="0 8.984375 17.96875 21.84375 30.828125 39.8125 43.6875 52.671875 61.65625 66.773438">14:30:00&quot;,</tspan></text>
</g><g
       transform="matrix(0.75,0,0,0.75,72,187.21875)"
       id="g96"><text
         id="text100"
         style="font-variant:normal;font-weight:normal;font-size:16px;font-family:Roboto;-inkscape-font-specification:Roboto-Regular;writing-mode:lr-tb;fill:#000000;fill-opacity:1;fill-rule:nonzero;stroke:none"
         transform="translate(15.84375,15.203125)"><tspan
           id="tspan98"
           y="0"
           x="0 4.4921875 12.742188 21.21875 26.773438 34.523438 38.40625 46.78125 55.257812 65.351562 70.765625 74.648438 83.023438 91.390625 96.507812">&quot;servicePrice&quot;:</tspan></text>
<text
         id="text104"
         style="font-variant:normal;font-weight:normal;font-size:16px;font-family:Roboto;-inkscape-font-specification:Roboto-Regular;writing-mode:lr-tb;fill:#000000;fill-opacity:1;fill-rule:nonzero;stroke:none"
         transform="translate(120.1875,15.203125)"><tspan
           id="tspan102"
           y="0"
           x="0 8.984375 17.96875">35,</tspan></text>
</g><g
       transform="matrix(0.75,0,0,0.75,72,201.62109)"
       id="g106"><text
         id="text110"
         style="font-variant:normal;font-weight:normal;font-size:16px;font-family:Roboto;-inkscape-font-specification:Roboto-Regular;writing-mode:lr-tb;fill:#000000;fill-opacity:1;fill-rule:nonzero;stroke:none"
         transform="translate(15.84375,15.203125)"><tspan
           id="tspan108"
           y="0"
           x="0 4.4921875 12.742188 21.21875 26.773438 34.523438 38.40625 46.78125 55.257812 65.75 74.570312 79.671875 88.375 93.601562 97.484375 106.60938 114.625 119.74219">&quot;serviceDuration&quot;:</tspan></text>
<text
         id="text114"
         style="font-variant:normal;font-weight:normal;font-size:16px;font-family:Roboto;-inkscape-font-specification:Roboto-Regular;writing-mode:lr-tb;fill:#000000;fill-opacity:1;fill-rule:nonzero;stroke:none"
         transform="translate(143.42187,15.203125)"><tspan
           id="tspan112"
           y="0"
           x="0 8.984375 17.96875">45,</tspan></text>
</g><g
       transform="matrix(0.75,0,0,0.75,72,216.02344)"
       id="g116"><text
         id="text120"
         style="font-variant:normal;font-weight:normal;font-size:16px;font-family:Roboto;-inkscape-font-specification:Roboto-Regular;writing-mode:lr-tb;fill:#000000;fill-opacity:1;fill-rule:nonzero;stroke:none"
         transform="translate(15.84375,15.203125)"><tspan
           id="tspan118"
           y="0"
           x="0 4.4921875 12.742188 21.21875 26.773438 34.523438 38.40625 46.78125 55.257812 65.671875 74.375 79.601562 88.078125 97.054688 106.17969 111.73438 119.42188 124.53906">&quot;serviceCategory&quot;:</tspan></text>
<text
         id="text124"
         style="font-variant:normal;font-weight:normal;font-size:16px;font-family:Roboto;-inkscape-font-specification:Roboto-Regular;writing-mode:lr-tb;fill:#000000;fill-opacity:1;fill-rule:nonzero;stroke:none"
         transform="translate(148.21875,15.203125)"><tspan
           id="tspan122"
           y="0"
           x="0 5.1171875 14.078125 19.492188 23.375 36.585938">&quot;Trim&quot;</tspan></text>
</g><g
       transform="matrix(0.75,0,0,0.75,72,230.42578)"
       id="g126"><text
         id="text130"
         style="font-variant:normal;font-weight:normal;font-size:16px;font-family:Roboto;-inkscape-font-specification:Roboto-Regular;writing-mode:lr-tb;fill:#000000;fill-opacity:1;fill-rule:nonzero;stroke:none"
         transform="translate(7.921875,15.203125)"><tspan
           id="tspan128"
           y="0"
           x="0 5.4140625">},</tspan></text>
</g><g
       transform="matrix(0.75,0,0,0.75,72,244.82813)"
       id="g132"><text
         id="text136"
         style="font-variant:normal;font-weight:normal;font-size:16px;font-family:Roboto;-inkscape-font-specification:Roboto-Regular;writing-mode:lr-tb;fill:#000000;fill-opacity:1;fill-rule:nonzero;stroke:none"
         transform="translate(7.921875,15.203125)"><tspan
           id="tspan134"
           y="0"
           x="0">{</tspan></text>
</g><g
       transform="matrix(0.75,0,0,0.75,72,259.23047)"
       id="g138"><text
         id="text142"
         style="font-variant:normal;font-weight:normal;font-size:16px;font-family:Roboto;-inkscape-font-specification:Roboto-Regular;writing-mode:lr-tb;fill:#000000;fill-opacity:1;fill-rule:nonzero;stroke:none"
         transform="translate(15.84375,15.203125)"><tspan
           id="tspan140"
           y="0"
           x="0 5.1171875 9 18.023438 23.140625">&quot;id&quot;:</tspan></text>
<text
         id="text146"
         style="font-variant:normal;font-weight:normal;font-size:16px;font-family:Roboto;-inkscape-font-specification:Roboto-Regular;writing-mode:lr-tb;fill:#000000;fill-opacity:1;fill-rule:nonzero;stroke:none"
         transform="translate(46.820313,15.203125)"><tspan
           id="tspan144"
           y="0"
           x="0 8.984375">2,</tspan></text>
</g><g
       transform="matrix(0.75,0,0,0.75,72,273.63281)"
       id="g148"><text
         id="text152"
         style="font-variant:normal;font-weight:normal;font-size:16px;font-family:Roboto;-inkscape-font-specification:Roboto-Regular;writing-mode:lr-tb;fill:#000000;fill-opacity:1;fill-rule:nonzero;stroke:none"
         transform="translate(15.84375,15.203125)"><tspan
           id="tspan150"
           y="0"
           x="0 5.1171875 13.9375 22.1875 30.664062 36.078125 40.429688 49.453125 54.570312">&quot;userId&quot;:</tspan></text>
<text
         id="text156"
         style="font-variant:normal;font-weight:normal;font-size:16px;font-family:Roboto;-inkscape-font-specification:Roboto-Regular;writing-mode:lr-tb;fill:#000000;fill-opacity:1;fill-rule:nonzero;stroke:none"
         transform="translate(78.25,15.203125)"><tspan
           id="tspan154"
           y="0"
           x="0 8.984375">1,</tspan></text>
</g><g
       transform="matrix(0.75,0,0,0.75,72,288.03516)"
       id="g158"><text
         id="text162"
         style="font-variant:normal;font-weight:normal;font-size:16px;font-family:Roboto;-inkscape-font-specification:Roboto-Regular;writing-mode:lr-tb;fill:#000000;fill-opacity:1;fill-rule:nonzero;stroke:none"
         transform="translate(15.84375,15.203125)"><tspan
           id="tspan160"
           y="0"
           x="0 5.1171875 14.09375 22.796875 28.210938 37.1875 45.664062 51.078125 55.429688 64.453125 69.570312">&quot;barberId&quot;:</tspan></text>
<text
         id="text166"
         style="font-variant:normal;font-weight:normal;font-size:16px;font-family:Roboto;-inkscape-font-specification:Roboto-Regular;writing-mode:lr-tb;fill:#000000;fill-opacity:1;fill-rule:nonzero;stroke:none"
         transform="translate(93.25,15.203125)"><tspan
           id="tspan164"
           y="0"
           x="0 8.984375">5,</tspan></text>
</g><g
       transform="matrix(0.75,0,0,0.75,72,302.4375)"
       id="g168"><text
         id="text172"
         style="font-variant:normal;font-weight:normal;font-size:16px;font-family:Roboto;-inkscape-font-specification:Roboto-Regular;writing-mode:lr-tb;fill:#000000;fill-opacity:1;fill-rule:nonzero;stroke:none"
         transform="translate(15.84375,15.203125)"><tspan
           id="tspan170"
           y="0"
           x="0 5.1171875 14.09375 22.796875 28.210938 37.1875 45.664062 51.078125 62.484375 71.1875 85.210938 93.578125 98.695312">&quot;barberName&quot;:</tspan></text>
<text
         id="text176"
         style="font-variant:normal;font-weight:normal;font-size:16px;font-family:Roboto;-inkscape-font-specification:Roboto-Regular;writing-mode:lr-tb;fill:#000000;fill-opacity:1;fill-rule:nonzero;stroke:none"
         transform="translate(122.375,15.203125)"><tspan
           id="tspan174"
           y="0"
           x="0 5.1171875 13.890625 23.015625 31.84375">&quot;Tony</tspan></text>
<text
         id="text180"
         style="font-variant:normal;font-weight:normal;font-size:16px;font-family:Roboto;-inkscape-font-specification:Roboto-Regular;writing-mode:lr-tb;fill:#000000;fill-opacity:1;fill-rule:nonzero;stroke:none"
         transform="translate(165.75,15.203125)"><tspan
           id="tspan178"
           y="0"
           x="0 8.6796875 17.15625 22.570312 31.398438 40.101562 48.929688 57.953125 66.429688 74.359375 79.476562">Fernandez&quot;,</tspan></text>
</g><g
       transform="matrix(0.75,0,0,0.75,72,316.83984)"
       id="g182"><text
         id="text186"
         style="font-variant:normal;font-weight:normal;font-size:16px;font-family:Roboto;-inkscape-font-specification:Roboto-Regular;writing-mode:lr-tb;fill:#000000;fill-opacity:1;fill-rule:nonzero;stroke:none"
         transform="translate(15.84375,15.203125)"><tspan
           id="tspan184"
           y="0"
           x="0 5.1171875 14.09375 22.796875 28.210938 37.1875 45.664062 51.078125 60.570312 69.046875 74.601562 82.351562 86.234375 94.609375 102.97656 108.09375">&quot;barberService&quot;:</tspan></text>
<text
         id="text190"
         style="font-variant:normal;font-weight:normal;font-size:16px;font-family:Roboto;-inkscape-font-specification:Roboto-Regular;writing-mode:lr-tb;fill:#000000;fill-opacity:1;fill-rule:nonzero;stroke:none"
         transform="translate(131.77344,15.203125)"><tspan
           id="tspan188"
           y="0"
           x="0 5.1171875 16.523438 25.226562 29.109375 34.375 42.75 51.570312 56.796875 61.914062">&quot;Haircut&quot;,</tspan></text>
</g><g
       transform="matrix(0.75,0,0,0.75,72,331.24219)"
       id="g192"><text
         id="text196"
         style="font-variant:normal;font-weight:normal;font-size:16px;font-family:Roboto;-inkscape-font-specification:Roboto-Regular;writing-mode:lr-tb;fill:#000000;fill-opacity:1;fill-rule:nonzero;stroke:none"
         transform="translate(15.84375,15.203125)"><tspan
           id="tspan194"
           y="0"
           x="0 4.65625 13.679688 22.382812 27.609375 36.085938 45.632812 49.515625 63.539062 72.015625 80.679688 89.382812 97.335938 105.8125 113.82812 118.94531">&quot;dateTimeTaken&quot;:</tspan></text>
<text
         id="text200"
         style="font-variant:normal;font-weight:normal;font-size:16px;font-family:Roboto;-inkscape-font-specification:Roboto-Regular;writing-mode:lr-tb;fill:#000000;fill-opacity:1;fill-rule:nonzero;stroke:none"
         transform="translate(142.625,15.203125)"><tspan
           id="tspan198"
           y="0"
           x="0 5.1171875 14.101562 23.085938 32.070312 41.054688 45.46875 54.453125 63.4375 67.851562 76.835938">&quot;2023-12-13</tspan></text>
<text
         id="text204"
         style="font-variant:normal;font-weight:normal;font-size:16px;font-family:Roboto;-inkscape-font-specification:Roboto-Regular;writing-mode:lr-tb;fill:#000000;fill-opacity:1;fill-rule:nonzero;stroke:none"
         transform="translate(232.40625,15.203125)"><tspan
           id="tspan202"
           y="0"
           x="0 8.984375 17.96875 21.84375 30.828125 39.8125 43.6875 52.671875 61.65625 66.773438">14:30:00&quot;,</tspan></text>
</g><g
       transform="matrix(0.75,0,0,0.75,72,345.64453)"
       id="g206"><text
         id="text210"
         style="font-variant:normal;font-weight:normal;font-size:16px;font-family:Roboto;-inkscape-font-specification:Roboto-Regular;writing-mode:lr-tb;fill:#000000;fill-opacity:1;fill-rule:nonzero;stroke:none"
         transform="translate(15.84375,15.203125)"><tspan
           id="tspan208"
           y="0"
           x="0 4.4921875 12.742188 21.21875 26.773438 34.523438 38.40625 46.78125 55.257812 65.351562 70.765625 74.648438 83.023438 91.390625 96.507812">&quot;servicePrice&quot;:</tspan></text>
<text
         id="text214"
         style="font-variant:normal;font-weight:normal;font-size:16px;font-family:Roboto;-inkscape-font-specification:Roboto-Regular;writing-mode:lr-tb;fill:#000000;fill-opacity:1;fill-rule:nonzero;stroke:none"
         transform="translate(120.1875,15.203125)"><tspan
           id="tspan212"
           y="0"
           x="0 8.984375 17.96875">35,</tspan></text>
</g><g
       transform="matrix(0.75,0,0,0.75,72,360.04688)"
       id="g216"><text
         id="text220"
         style="font-variant:normal;font-weight:normal;font-size:16px;font-family:Roboto;-inkscape-font-specification:Roboto-Regular;writing-mode:lr-tb;fill:#000000;fill-opacity:1;fill-rule:nonzero;stroke:none"
         transform="translate(15.84375,15.203125)"><tspan
           id="tspan218"
           y="0"
           x="0 4.4921875 12.742188 21.21875 26.773438 34.523438 38.40625 46.78125 55.257812 65.75 74.570312 79.671875 88.375 93.601562 97.484375 106.60938 114.625 119.74219">&quot;serviceDuration&quot;:</tspan></text>
<text
         id="text224"
         style="font-variant:normal;font-weight:normal;font-size:16px;font-family:Roboto;-inkscape-font-specification:Roboto-Regular;writing-mode:lr-tb;fill:#000000;fill-opacity:1;fill-rule:nonzero;stroke:none"
         transform="translate(143.42187,15.203125)"><tspan
           id="tspan222"
           y="0"
           x="0 8.984375 17.96875">45,</tspan></text>
</g><g
       transform="matrix(0.75,0,0,0.75,72,374.44922)"
       id="g226"><text
         id="text230"
         style="font-variant:normal;font-weight:normal;font-size:16px;font-family:Roboto;-inkscape-font-specification:Roboto-Regular;writing-mode:lr-tb;fill:#000000;fill-opacity:1;fill-rule:nonzero;stroke:none"
         transform="translate(15.84375,15.203125)"><tspan
           id="tspan228"
           y="0"
           x="0 4.4921875 12.742188 21.21875 26.773438 34.523438 38.40625 46.78125 55.257812 65.671875 74.375 79.601562 88.078125 97.054688 106.17969 111.73438 119.42188 124.53906">&quot;serviceCategory&quot;:</tspan></text>
<text
         id="text234"
         style="font-variant:normal;font-weight:normal;font-size:16px;font-family:Roboto;-inkscape-font-specification:Roboto-Regular;writing-mode:lr-tb;fill:#000000;fill-opacity:1;fill-rule:nonzero;stroke:none"
         transform="translate(148.21875,15.203125)"><tspan
           id="tspan232"
           y="0"
           x="0 5.1171875 14.078125 19.492188 23.375 36.585938">&quot;Trim&quot;</tspan></text>
</g><g
       transform="matrix(0.75,0,0,0.75,72,388.85156)"
       id="g236"><text
         id="text240"
         style="font-variant:normal;font-weight:normal;font-size:16px;font-family:Roboto;-inkscape-font-specification:Roboto-Regular;writing-mode:lr-tb;fill:#000000;fill-opacity:1;fill-rule:nonzero;stroke:none"
         transform="translate(7.921875,15.203125)"><tspan
           id="tspan238"
           y="0"
           x="0 5.4140625">},</tspan></text>
</g><g
       transform="matrix(0.75,0,0,0.75,72,403.25391)"
       id="g242"><text
         id="text246"
         style="font-variant:normal;font-weight:normal;font-size:16px;font-family:Roboto;-inkscape-font-specification:Roboto-Regular;writing-mode:lr-tb;fill:#000000;fill-opacity:1;fill-rule:nonzero;stroke:none"
         transform="translate(7.921875,15.203125)"><tspan
           id="tspan244"
           y="0"
           x="0">{</tspan></text>
</g><g
       transform="matrix(0.75,0,0,0.75,72,417.65625)"
       id="g248"><text
         id="text252"
         style="font-variant:normal;font-weight:normal;font-size:16px;font-family:Roboto;-inkscape-font-specification:Roboto-Regular;writing-mode:lr-tb;fill:#000000;fill-opacity:1;fill-rule:nonzero;stroke:none"
         transform="translate(15.84375,15.203125)"><tspan
           id="tspan250"
           y="0"
           x="0 5.1171875 9 18.023438 23.140625">&quot;id&quot;:</tspan></text>
<text
         id="text256"
         style="font-variant:normal;font-weight:normal;font-size:16px;font-family:Roboto;-inkscape-font-specification:Roboto-Regular;writing-mode:lr-tb;fill:#000000;fill-opacity:1;fill-rule:nonzero;stroke:none"
         transform="translate(46.820313,15.203125)"><tspan
           id="tspan254"
           y="0"
           x="0 8.984375">3,</tspan></text>
</g><g
       transform="matrix(0.75,0,0,0.75,72,432.05859)"
       id="g258"><text
         id="text262"
         style="font-variant:normal;font-weight:normal;font-size:16px;font-family:Roboto;-inkscape-font-specification:Roboto-Regular;writing-mode:lr-tb;fill:#000000;fill-opacity:1;fill-rule:nonzero;stroke:none"
         transform="translate(15.84375,15.203125)"><tspan
           id="tspan260"
           y="0"
           x="0 5.1171875 13.9375 22.1875 30.664062 36.078125 40.429688 49.453125 54.570312">&quot;userId&quot;:</tspan></text>
<text
         id="text266"
         style="font-variant:normal;font-weight:normal;font-size:16px;font-family:Roboto;-inkscape-font-specification:Roboto-Regular;writing-mode:lr-tb;fill:#000000;fill-opacity:1;fill-rule:nonzero;stroke:none"
         transform="translate(78.25,15.203125)"><tspan
           id="tspan264"
           y="0"
           x="0 8.984375">1,</tspan></text>
</g><g
       transform="matrix(0.75,0,0,0.75,72,446.46094)"
       id="g268"><text
         id="text272"
         style="font-variant:normal;font-weight:normal;font-size:16px;font-family:Roboto;-inkscape-font-specification:Roboto-Regular;writing-mode:lr-tb;fill:#000000;fill-opacity:1;fill-rule:nonzero;stroke:none"
         transform="translate(15.84375,15.203125)"><tspan
           id="tspan270"
           y="0"
           x="0 5.1171875 14.09375 22.796875 28.210938 37.1875 45.664062 51.078125 55.429688 64.453125 69.570312">&quot;barberId&quot;:</tspan></text>
<text
         id="text276"
         style="font-variant:normal;font-weight:normal;font-size:16px;font-family:Roboto;-inkscape-font-specification:Roboto-Regular;writing-mode:lr-tb;fill:#000000;fill-opacity:1;fill-rule:nonzero;stroke:none"
         transform="translate(93.25,15.203125)"><tspan
           id="tspan274"
           y="0"
           x="0 8.984375">5,</tspan></text>
</g><g
       transform="matrix(0.75,0,0,0.75,72,460.86328)"
       id="g278"><text
         id="text282"
         style="font-variant:normal;font-weight:normal;font-size:16px;font-family:Roboto;-inkscape-font-specification:Roboto-Regular;writing-mode:lr-tb;fill:#000000;fill-opacity:1;fill-rule:nonzero;stroke:none"
         transform="translate(15.84375,15.203125)"><tspan
           id="tspan280"
           y="0"
           x="0 5.1171875 14.09375 22.796875 28.210938 37.1875 45.664062 51.078125 62.484375 71.1875 85.210938 93.578125 98.695312">&quot;barberName&quot;:</tspan></text>
<text
         id="text286"
         style="font-variant:normal;font-weight:normal;font-size:16px;font-family:Roboto;-inkscape-font-specification:Roboto-Regular;writing-mode:lr-tb;fill:#000000;fill-opacity:1;fill-rule:nonzero;stroke:none"
         transform="translate(122.375,15.203125)"><tspan
           id="tspan284"
           y="0"
           x="0 5.1171875 13.890625 23.015625 31.84375">&quot;Tony</tspan></text>
<text
         id="text290"
         style="font-variant:normal;font-weight:normal;font-size:16px;font-family:Roboto;-inkscape-font-specification:Roboto-Regular;writing-mode:lr-tb;fill:#000000;fill-opacity:1;fill-rule:nonzero;stroke:none"
         transform="translate(165.75,15.203125)"><tspan
           id="tspan288"
           y="0"
           x="0 8.6796875 17.15625 22.570312 31.398438 40.101562 48.929688 57.953125 66.429688 74.359375 79.476562">Fernandez&quot;,</tspan></text>
</g><g
       transform="matrix(0.75,0,0,0.75,72,475.26563)"
       id="g292"><text
         id="text296"
         style="font-variant:normal;font-weight:normal;font-size:16px;font-family:Roboto;-inkscape-font-specification:Roboto-Regular;writing-mode:lr-tb;fill:#000000;fill-opacity:1;fill-rule:nonzero;stroke:none"
         transform="translate(15.84375,15.203125)"><tspan
           id="tspan294"
           y="0"
           x="0 5.1171875 14.09375 22.796875 28.210938 37.1875 45.664062 51.078125 60.570312 69.046875 74.601562 82.351562 86.234375 94.609375 102.97656 108.09375">&quot;barberService&quot;:</tspan></text>
<text
         id="text300"
         style="font-variant:normal;font-weight:normal;font-size:16px;font-family:Roboto;-inkscape-font-specification:Roboto-Regular;writing-mode:lr-tb;fill:#000000;fill-opacity:1;fill-rule:nonzero;stroke:none"
         transform="translate(131.77344,15.203125)"><tspan
           id="tspan298"
           y="0"
           x="0 5.1171875 16.523438 25.226562 29.109375 34.375 42.75 51.570312 56.796875 61.914062">&quot;Haircut&quot;,</tspan></text>
</g><g
       transform="matrix(0.75,0,0,0.75,72,489.66797)"
       id="g302"><text
         id="text306"
         style="font-variant:normal;font-weight:normal;font-size:16px;font-family:Roboto;-inkscape-font-specification:Roboto-Regular;writing-mode:lr-tb;fill:#000000;fill-opacity:1;fill-rule:nonzero;stroke:none"
         transform="translate(15.84375,15.203125)"><tspan
           id="tspan304"
           y="0"
           x="0 4.65625 13.679688 22.382812 27.609375 36.085938 45.632812 49.515625 63.539062 72.015625 80.679688 89.382812 97.335938 105.8125 113.82812 118.94531">&quot;dateTimeTaken&quot;:</tspan></text>
<text
         id="text310"
         style="font-variant:normal;font-weight:normal;font-size:16px;font-family:Roboto;-inkscape-font-specification:Roboto-Regular;writing-mode:lr-tb;fill:#000000;fill-opacity:1;fill-rule:nonzero;stroke:none"
         transform="translate(142.625,15.203125)"><tspan
           id="tspan308"
           y="0"
           x="0 5.1171875 14.101562 23.085938 32.070312 41.054688 45.46875 54.453125 63.4375 67.851562 76.835938">&quot;2023-12-13</tspan></text>
<text
         id="text314"
         style="font-variant:normal;font-weight:normal;font-size:16px;font-family:Roboto;-inkscape-font-specification:Roboto-Regular;writing-mode:lr-tb;fill:#000000;fill-opacity:1;fill-rule:nonzero;stroke:none"
         transform="translate(232.40625,15.203125)"><tspan
           id="tspan312"
           y="0"
           x="0 8.984375 17.96875 21.84375 30.828125 39.8125 43.6875 52.671875 61.65625 66.773438">15:30:00&quot;,</tspan></text>
</g><g
       transform="matrix(0.75,0,0,0.75,72,504.07031)"
       id="g316"><text
         id="text320"
         style="font-variant:normal;font-weight:normal;font-size:16px;font-family:Roboto;-inkscape-font-specification:Roboto-Regular;writing-mode:lr-tb;fill:#000000;fill-opacity:1;fill-rule:nonzero;stroke:none"
         transform="translate(15.84375,15.203125)"><tspan
           id="tspan318"
           y="0"
           x="0 4.4921875 12.742188 21.21875 26.773438 34.523438 38.40625 46.78125 55.257812 65.351562 70.765625 74.648438 83.023438 91.390625 96.507812">&quot;servicePrice&quot;:</tspan></text>
<text
         id="text324"
         style="font-variant:normal;font-weight:normal;font-size:16px;font-family:Roboto;-inkscape-font-specification:Roboto-Regular;writing-mode:lr-tb;fill:#000000;fill-opacity:1;fill-rule:nonzero;stroke:none"
         transform="translate(120.1875,15.203125)"><tspan
           id="tspan322"
           y="0"
           x="0 8.984375 17.96875">35,</tspan></text>
</g><g
       transform="matrix(0.75,0,0,0.75,72,518.47266)"
       id="g326"><text
         id="text330"
         style="font-variant:normal;font-weight:normal;font-size:16px;font-family:Roboto;-inkscape-font-specification:Roboto-Regular;writing-mode:lr-tb;fill:#000000;fill-opacity:1;fill-rule:nonzero;stroke:none"
         transform="translate(15.84375,15.203125)"><tspan
           id="tspan328"
           y="0"
           x="0 4.4921875 12.742188 21.21875 26.773438 34.523438 38.40625 46.78125 55.257812 65.75 74.570312 79.671875 88.375 93.601562 97.484375 106.60938 114.625 119.74219">&quot;serviceDuration&quot;:</tspan></text>
<text
         id="text334"
         style="font-variant:normal;font-weight:normal;font-size:16px;font-family:Roboto;-inkscape-font-specification:Roboto-Regular;writing-mode:lr-tb;fill:#000000;fill-opacity:1;fill-rule:nonzero;stroke:none"
         transform="translate(143.42187,15.203125)"><tspan
           id="tspan332"
           y="0"
           x="0 8.984375 17.96875">45,</tspan></text>
</g><g
       transform="matrix(0.75,0,0,0.75,72,532.875)"
       id="g336"><text
         id="text340"
         style="font-variant:normal;font-weight:normal;font-size:16px;font-family:Roboto;-inkscape-font-specification:Roboto-Regular;writing-mode:lr-tb;fill:#000000;fill-opacity:1;fill-rule:nonzero;stroke:none"
         transform="translate(15.84375,15.203125)"><tspan
           id="tspan338"
           y="0"
           x="0 4.4921875 12.742188 21.21875 26.773438 34.523438 38.40625 46.78125 55.257812 65.671875 74.375 79.601562 88.078125 97.054688 106.17969 111.73438 119.42188 124.53906">&quot;serviceCategory&quot;:</tspan></text>
<text
         id="text344"
         style="font-variant:normal;font-weight:normal;font-size:16px;font-family:Roboto;-inkscape-font-specification:Roboto-Regular;writing-mode:lr-tb;fill:#000000;fill-opacity:1;fill-rule:nonzero;stroke:none"
         transform="translate(148.21875,15.203125)"><tspan
           id="tspan342"
           y="0"
           x="0 5.1171875 14.078125 19.492188 23.375 36.585938">&quot;Trim&quot;</tspan></text>
</g><g
       transform="matrix(0.75,0,0,0.75,72,547.27734)"
       id="g346"><text
         id="text350"
         style="font-variant:normal;font-weight:normal;font-size:16px;font-family:Roboto;-inkscape-font-specification:Roboto-Regular;writing-mode:lr-tb;fill:#000000;fill-opacity:1;fill-rule:nonzero;stroke:none"
         transform="translate(7.921875,15.203125)"><tspan
           id="tspan348"
           y="0"
           x="0 5.4140625">},</tspan></text>
</g><g
       transform="matrix(0.75,0,0,0.75,72,561.67969)"
       id="g352"><text
         id="text356"
         style="font-variant:normal;font-weight:normal;font-size:16px;font-family:Roboto;-inkscape-font-specification:Roboto-Regular;writing-mode:lr-tb;fill:#000000;fill-opacity:1;fill-rule:nonzero;stroke:none"
         transform="translate(7.921875,15.203125)"><tspan
           id="tspan354"
           y="0"
           x="0">{</tspan></text>
</g><g
       transform="matrix(0.75,0,0,0.75,72,576.08203)"
       id="g358"><text
         id="text362"
         style="font-variant:normal;font-weight:normal;font-size:16px;font-family:Roboto;-inkscape-font-specification:Roboto-Regular;writing-mode:lr-tb;fill:#000000;fill-opacity:1;fill-rule:nonzero;stroke:none"
         transform="translate(15.84375,15.203125)"><tspan
           id="tspan360"
           y="0"
           x="0 5.1171875 9 18.023438 23.140625">&quot;id&quot;:</tspan></text>
<text
         id="text366"
         style="font-variant:normal;font-weight:normal;font-size:16px;font-family:Roboto;-inkscape-font-specification:Roboto-Regular;writing-mode:lr-tb;fill:#000000;fill-opacity:1;fill-rule:nonzero;stroke:none"
         transform="translate(46.820313,15.203125)"><tspan
           id="tspan364"
           y="0"
           x="0 8.984375">4,</tspan></text>
</g><g
       transform="matrix(0.75,0,0,0.75,72,590.48438)"
       id="g368"><text
         id="text372"
         style="font-variant:normal;font-weight:normal;font-size:16px;font-family:Roboto;-inkscape-font-specification:Roboto-Regular;writing-mode:lr-tb;fill:#000000;fill-opacity:1;fill-rule:nonzero;stroke:none"
         transform="translate(15.84375,15.203125)"><tspan
           id="tspan370"
           y="0"
           x="0 5.1171875 13.9375 22.1875 30.664062 36.078125 40.429688 49.453125 54.570312">&quot;userId&quot;:</tspan></text>
<text
         id="text376"
         style="font-variant:normal;font-weight:normal;font-size:16px;font-family:Roboto;-inkscape-font-specification:Roboto-Regular;writing-mode:lr-tb;fill:#000000;fill-opacity:1;fill-rule:nonzero;stroke:none"
         transform="translate(78.25,15.203125)"><tspan
           id="tspan374"
           y="0"
           x="0 8.984375">1,</tspan></text>
</g><g
       transform="matrix(0.75,0,0,0.75,72,604.88672)"
       id="g378"><text
         id="text382"
         style="font-variant:normal;font-weight:normal;font-size:16px;font-family:Roboto;-inkscape-font-specification:Roboto-Regular;writing-mode:lr-tb;fill:#000000;fill-opacity:1;fill-rule:nonzero;stroke:none"
         transform="translate(15.84375,15.203125)"><tspan
           id="tspan380"
           y="0"
           x="0 5.1171875 14.09375 22.796875 28.210938 37.1875 45.664062 51.078125 55.429688 64.453125 69.570312">&quot;barberId&quot;:</tspan></text>
<text
         id="text386"
         style="font-variant:normal;font-weight:normal;font-size:16px;font-family:Roboto;-inkscape-font-specification:Roboto-Regular;writing-mode:lr-tb;fill:#000000;fill-opacity:1;fill-rule:nonzero;stroke:none"
         transform="translate(93.25,15.203125)"><tspan
           id="tspan384"
           y="0"
           x="0 8.984375">5,</tspan></text>
</g><g
       transform="matrix(0.75,0,0,0.75,72,619.28906)"
       id="g388"><text
         id="text392"
         style="font-variant:normal;font-weight:normal;font-size:16px;font-family:Roboto;-inkscape-font-specification:Roboto-Regular;writing-mode:lr-tb;fill:#000000;fill-opacity:1;fill-rule:nonzero;stroke:none"
         transform="translate(15.84375,15.203125)"><tspan
           id="tspan390"
           y="0"
           x="0 5.1171875 14.09375 22.796875 28.210938 37.1875 45.664062 51.078125 62.484375 71.1875 85.210938 93.578125 98.695312">&quot;barberName&quot;:</tspan></text>
<text
         id="text396"
         style="font-variant:normal;font-weight:normal;font-size:16px;font-family:Roboto;-inkscape-font-specification:Roboto-Regular;writing-mode:lr-tb;fill:#000000;fill-opacity:1;fill-rule:nonzero;stroke:none"
         transform="translate(122.375,15.203125)"><tspan
           id="tspan394"
           y="0"
           x="0 5.1171875 13.890625 23.015625 31.84375">&quot;Tony</tspan></text>
<text
         id="text400"
         style="font-variant:normal;font-weight:normal;font-size:16px;font-family:Roboto;-inkscape-font-specification:Roboto-Regular;writing-mode:lr-tb;fill:#000000;fill-opacity:1;fill-rule:nonzero;stroke:none"
         transform="translate(165.75,15.203125)"><tspan
           id="tspan398"
           y="0"
           x="0 8.6796875 17.15625 22.570312 31.398438 40.101562 48.929688 57.953125 66.429688 74.359375 79.476562">Fernandez&quot;,</tspan></text>
</g><g
       transform="matrix(0.75,0,0,0.75,72,633.69141)"
       id="g402"><text
         id="text406"
         style="font-variant:normal;font-weight:normal;font-size:16px;font-family:Roboto;-inkscape-font-specification:Roboto-Regular;writing-mode:lr-tb;fill:#000000;fill-opacity:1;fill-rule:nonzero;stroke:none"
         transform="translate(15.84375,15.203125)"><tspan
           id="tspan404"
           y="0"
           x="0 5.1171875 14.09375 22.796875 28.210938 37.1875 45.664062 51.078125 60.570312 69.046875 74.601562 82.351562 86.234375 94.609375 102.97656 108.09375">&quot;barberService&quot;:</tspan></text>
<text
         id="text410"
         style="font-variant:normal;font-weight:normal;font-size:16px;font-family:Roboto;-inkscape-font-specification:Roboto-Regular;writing-mode:lr-tb;fill:#000000;fill-opacity:1;fill-rule:nonzero;stroke:none"
         transform="translate(131.77344,15.203125)"><tspan
           id="tspan408"
           y="0"
           x="0 5.1171875 16.523438 25.226562 29.109375 34.375 42.75 51.570312 56.796875 61.914062">&quot;Haircut&quot;,</tspan></text>
</g><g
       transform="matrix(0.75,0,0,0.75,72,648.09375)"
       id="g412"><text
         id="text416"
         style="font-variant:normal;font-weight:normal;font-size:16px;font-family:Roboto;-inkscape-font-specification:Roboto-Regular;writing-mode:lr-tb;fill:#000000;fill-opacity:1;fill-rule:nonzero;stroke:none"
         transform="translate(15.84375,15.203125)"><tspan
           id="tspan414"
           y="0"
           x="0 4.65625 13.679688 22.382812 27.609375 36.085938 45.632812 49.515625 63.539062 72.015625 80.679688 89.382812 97.335938 105.8125 113.82812 118.94531">&quot;dateTimeTaken&quot;:</tspan></text>
<text
         id="text420"
         style="font-variant:normal;font-weight:normal;font-size:16px;font-family:Roboto;-inkscape-font-specification:Roboto-Regular;writing-mode:lr-tb;fill:#000000;fill-opacity:1;fill-rule:nonzero;stroke:none"
         transform="translate(142.625,15.203125)"><tspan
           id="tspan418"
           y="0"
           x="0 5.1171875 14.101562 23.085938 32.070312 41.054688 45.46875 54.453125 63.4375 67.851562 76.835938">&quot;2023-12-13</tspan></text>
<text
         id="text424"
         style="font-variant:normal;font-weight:normal;font-size:16px;font-family:Roboto;-inkscape-font-specification:Roboto-Regular;writing-mode:lr-tb;fill:#000000;fill-opacity:1;fill-rule:nonzero;stroke:none"
         transform="translate(232.40625,15.203125)"><tspan
           id="tspan422"
           y="0"
           x="0 8.984375 17.96875 21.84375 30.828125 39.8125 43.6875 52.671875 61.65625 66.773438">16:30:00&quot;,</tspan></text>
</g><g
       transform="matrix(0.75,0,0,0.75,72,662.49609)"
       id="g426"><text
         id="text430"
         style="font-variant:normal;font-weight:normal;font-size:16px;font-family:Roboto;-inkscape-font-specification:Roboto-Regular;writing-mode:lr-tb;fill:#000000;fill-opacity:1;fill-rule:nonzero;stroke:none"
         transform="translate(15.84375,15.203125)"><tspan
           id="tspan428"
           y="0"
           x="0 4.4921875 12.742188 21.21875 26.773438 34.523438 38.40625 46.78125 55.257812 65.351562 70.765625 74.648438 83.023438 91.390625 96.507812">&quot;servicePrice&quot;:</tspan></text>
<text
         id="text434"
         style="font-variant:normal;font-weight:normal;font-size:16px;font-family:Roboto;-inkscape-font-specification:Roboto-Regular;writing-mode:lr-tb;fill:#000000;fill-opacity:1;fill-rule:nonzero;stroke:none"
         transform="translate(120.1875,15.203125)"><tspan
           id="tspan432"
           y="0"
           x="0 8.984375 17.96875">35,</tspan></text>
</g><g
       transform="matrix(0.75,0,0,0.75,72,676.89844)"
       id="g436"><text
         id="text440"
         style="font-variant:normal;font-weight:normal;font-size:16px;font-family:Roboto;-inkscape-font-specification:Roboto-Regular;writing-mode:lr-tb;fill:#000000;fill-opacity:1;fill-rule:nonzero;stroke:none"
         transform="translate(15.84375,15.203125)"><tspan
           id="tspan438"
           y="0"
           x="0 4.4921875 12.742188 21.21875 26.773438 34.523438 38.40625 46.78125 55.257812 65.75 74.570312 79.671875 88.375 93.601562 97.484375 106.60938 114.625 119.74219">&quot;serviceDuration&quot;:</tspan></text>
<text
         id="text444"
         style="font-variant:normal;font-weight:normal;font-size:16px;font-family:Roboto;-inkscape-font-specification:Roboto-Regular;writing-mode:lr-tb;fill:#000000;fill-opacity:1;fill-rule:nonzero;stroke:none"
         transform="translate(143.42187,15.203125)"><tspan
           id="tspan442"
           y="0"
           x="0 8.984375 17.96875">45,</tspan></text>
</g><g
       transform="matrix(0.75,0,0,0.75,72,691.30078)"
       id="g446"><text
         id="text450"
         style="font-variant:normal;font-weight:normal;font-size:16px;font-family:Roboto;-inkscape-font-specification:Roboto-Regular;writing-mode:lr-tb;fill:#000000;fill-opacity:1;fill-rule:nonzero;stroke:none"
         transform="translate(15.84375,15.203125)"><tspan
           id="tspan448"
           y="0"
           x="0 4.4921875 12.742188 21.21875 26.773438 34.523438 38.40625 46.78125 55.257812 65.671875 74.375 79.601562 88.078125 97.054688 106.17969 111.73438 119.42188 124.53906">&quot;serviceCategory&quot;:</tspan></text>
<text
         id="text454"
         style="font-variant:normal;font-weight:normal;font-size:16px;font-family:Roboto;-inkscape-font-specification:Roboto-Regular;writing-mode:lr-tb;fill:#000000;fill-opacity:1;fill-rule:nonzero;stroke:none"
         transform="translate(148.21875,15.203125)"><tspan
           id="tspan452"
           y="0"
           x="0 5.1171875 14.078125 19.492188 23.375 36.585938">&quot;Trim&quot;</tspan></text>
</g></g></svg>